HIERARCHY
ROOT Hips
{
  OFFSET 5.84602e-005 68.8428 3.50346
  CHANNELS 6 Xposition Yposition Zposition Zrotation Xrotation Yrotation
  JOINT Spine
  {
    OFFSET 0 8.597 -4.6522
    CHANNELS 3 Zrotation Xrotation Yrotation
    JOINT Spine1
    {
      OFFSET 0 7.8454 0.4098
      CHANNELS 3 Zrotation Xrotation Yrotation
      JOINT Spine2
      {
        OFFSET 0 9.7078 -2.1609
        CHANNELS 3 Zrotation Xrotation Yrotation
        JOINT Neck
        {
          OFFSET 0 21.8761 -0.4549
          CHANNELS 3 Zrotation Xrotation Yrotation
          JOINT Head
          {
            OFFSET 0 12.3537 3.3602
            CHANNELS 3 Zrotation Xrotation Yrotation
            End Site
            {
              OFFSET 0.0001 18.9506 0.5657
            }
          }
        }
        JOINT LeftShoulder
        {
          OFFSET 2.2086 21.1115 7.2329
          CHANNELS 3 Zrotation Xrotation Yrotation
          JOINT LeftArm
          {
            OFFSET 13.1193 3.0282 -4.8998
            CHANNELS 3 Zrotation Xrotation Yrotation
            JOINT LeftForeArm
            {
              OFFSET 27.4081 -0.0973053 -0.2375
              CHANNELS 3 Zrotation Xrotation Yrotation
              JOINT LeftHand
              {
                OFFSET 22.8641 0.0662994 -0.1369
                CHANNELS 3 Zrotation Xrotation Yrotation
                JOINT LeftHandIndex1
                {
                  OFFSET 8.8614 0.775009 2.4612
                  CHANNELS 3 Zrotation Xrotation Yrotation
                  JOINT LeftHandIndex2
                  {
                    OFFSET 3.3146 -0.808304 0.5841
                    CHANNELS 3 Zrotation Xrotation Yrotation
                    JOINT LeftHandIndex3
                    {
                      OFFSET 2.2628 -0.552002 0.3989
                      CHANNELS 3 Zrotation Xrotation Yrotation
                      End Site
                      {
                        OFFSET 1.6102 -0.4807 0.2612
                      }
                    }
                  }
                }
                JOINT LeftHandMiddle1
                {
                  OFFSET 8.9937 0.895004 0.2143
                  CHANNELS 3 Zrotation Xrotation Yrotation
                  JOINT LeftHandMiddle2
                  {
                    OFFSET 4.0984 0.0113983 -0.0242
                    CHANNELS 3 Zrotation Xrotation Yrotation
                    JOINT LeftHandMiddle3
                    {
                      OFFSET 2.2716 0.00689697 -0.0138001
                      CHANNELS 3 Zrotation Xrotation Yrotation
                      End Site
                      {
                        OFFSET 2.0404 -0.1441 0.0027
                      }
                    }
                  }
                }
                JOINT LeftHandRing1
                {
                  OFFSET 8.5234 0.597198 -2.0164
                  CHANNELS 3 Zrotation Xrotation Yrotation
                  JOINT LeftHandRing2
                  {
                    OFFSET 3.7188 -0.188293 -0.2328
                    CHANNELS 3 Zrotation Xrotation Yrotation
                    JOINT LeftHandRing3
                    {
                      OFFSET 2.1191 -0.106598 -0.1332
                      CHANNELS 3 Zrotation Xrotation Yrotation
                      End Site
                      {
                        OFFSET 1.8737 -0.2304 -0.0886
                      }
                    }
                  }
                }
                JOINT LeftHandPinky1
                {
                  OFFSET 7.9094 -0.601089 -3.4825
                  CHANNELS 3 Zrotation Xrotation Yrotation
                  JOINT LeftHandPinky2
                  {
                    OFFSET 2.2874 -0.477005 -0.6314
                    CHANNELS 3 Zrotation Xrotation Yrotation
                    JOINT LeftHandPinky3
                    {
                      OFFSET 1.6774 -0.349396 -0.4633
                      CHANNELS 3 Zrotation Xrotation Yrotation
                      End Site
                      {
                        OFFSET 1.4888 -0.4091 -0.3416
                      }
                    }
                  }
                }
                JOINT LeftHandThumb1
                {
                  OFFSET 1.833 -1.3875 1.3896
                  CHANNELS 3 Zrotation Xrotation Yrotation
                  JOINT LeftHandThumb2
                  {
                    OFFSET 3.4129 -1.121 2.5732
                    CHANNELS 3 Zrotation Xrotation Yrotation
                    JOINT LeftHandThumb3
                    {
                      OFFSET 2.2474 -0.804199 1.6192
                      CHANNELS 3 Zrotation Xrotation Yrotation
                      End Site
                      {
                        OFFSET 1.6527 -0.5689 1.1317
                      }
                    }
                  }
                }
              }
            }
          }
        }
        JOINT RightShoulder
        {
          OFFSET -2.2086 21.1115 7.2329
          CHANNELS 3 Zrotation Xrotation Yrotation
          JOINT RightArm
          {
            OFFSET -13.1216 3.0287 -4.9007
            CHANNELS 3 Zrotation Xrotation Yrotation
            JOINT RightForeArm
            {
              OFFSET -27.4081 -0.0973053 -0.2375
              CHANNELS 3 Zrotation Xrotation Yrotation
              JOINT RightHand
              {
                OFFSET -22.8641 0.0664063 -0.1369
                CHANNELS 3 Zrotation Xrotation Yrotation
                JOINT RightHandIndex1
                {
                  OFFSET -8.8614 0.774994 2.4612
                  CHANNELS 3 Zrotation Xrotation Yrotation
                  JOINT RightHandIndex2
                  {
                    OFFSET -3.3146 -0.808304 0.5841
                    CHANNELS 3 Zrotation Xrotation Yrotation
                    JOINT RightHandIndex3
                    {
                      OFFSET -2.2628 -0.552002 0.3989
                      CHANNELS 3 Zrotation Xrotation Yrotation
                      End Site
                      {
                        OFFSET -1.6102 -0.4807 0.2612
                      }
                    }
                  }
                }
                JOINT RightHandMiddle1
                {
                  OFFSET -8.9937 0.894989 0.2143
                  CHANNELS 3 Zrotation Xrotation Yrotation
                  JOINT RightHandMiddle2
                  {
                    OFFSET -4.0984 0.0113983 -0.0242
                    CHANNELS 3 Zrotation Xrotation Yrotation
                    JOINT RightHandMiddle3
                    {
                      OFFSET -2.2716 0.00691223 -0.0138001
                      CHANNELS 3 Zrotation Xrotation Yrotation
                      End Site
                      {
                        OFFSET -2.0404 -0.1441 0.0027
                      }
                    }
                  }
                }
                JOINT RightHandRing1
                {
                  OFFSET -8.5234 0.597198 -2.0164
                  CHANNELS 3 Zrotation Xrotation Yrotation
                  JOINT RightHandRing2
                  {
                    OFFSET -3.7188 -0.188309 -0.2328
                    CHANNELS 3 Zrotation Xrotation Yrotation
                    JOINT RightHandRing3
                    {
                      OFFSET -2.1191 -0.106598 -0.1332
                      CHANNELS 3 Zrotation Xrotation Yrotation
                      End Site
                      {
                        OFFSET -1.8737 -0.2304 -0.0886
                      }
                    }
                  }
                }
                JOINT RightHandPinky1
                {
                  OFFSET -7.9094 -0.601105 -3.4825
                  CHANNELS 3 Zrotation Xrotation Yrotation
                  JOINT RightHandPinky2
                  {
                    OFFSET -2.2874 -0.477005 -0.6314
                    CHANNELS 3 Zrotation Xrotation Yrotation
                    JOINT RightHandPinky3
                    {
                      OFFSET -1.6774 -0.349396 -0.4633
                      CHANNELS 3 Zrotation Xrotation Yrotation
                      End Site
                      {
                        OFFSET -1.4888 -0.4091 -0.3416
                      }
                    }
                  }
                }
                JOINT RightHandThumb1
                {
                  OFFSET -1.833 -1.38751 1.3896
                  CHANNELS 3 Zrotation Xrotation Yrotation
                  JOINT RightHandThumb2
                  {
                    OFFSET -3.41299 -1.12099 2.5732
                    CHANNELS 3 Zrotation Xrotation Yrotation
                    JOINT RightHandThumb3
                    {
                      OFFSET -2.24741 -0.804108 1.6192
                      CHANNELS 3 Zrotation Xrotation Yrotation
                      End Site
                      {
                        OFFSET -1.6527 -0.5689 1.1317
                      }
                    }
                  }
                }
              }
            }
          }
        }
      }
    }
  }
  JOINT RightUpLeg
  {
    OFFSET -9.1966 3.8861 -0.7581
    CHANNELS 3 Zrotation Xrotation Yrotation
    JOINT RightLeg
    {
      OFFSET -0.7359 -41.0265 0
      CHANNELS 3 Zrotation Xrotation Yrotation
      JOINT RightFoot
      {
        OFFSET 0 -40.2855 0
        CHANNELS 3 Zrotation Xrotation Yrotation
        JOINT RightToeBase
        {
          OFFSET 0 -5.6122 11.7359
          CHANNELS 3 Zrotation Xrotation Yrotation
          End Site
          {
            OFFSET 0 0 7.8731
          }
        }
      }
    }
  }
  JOINT LeftUpLeg
  {
    OFFSET 9.1965 3.8864 -0.7581
    CHANNELS 3 Zrotation Xrotation Yrotation
    JOINT LeftLeg
    {
      OFFSET 0.7359 -41.0268 0
      CHANNELS 3 Zrotation Xrotation Yrotation
      JOINT LeftFoot
      {
        OFFSET 0 -40.2855 0
        CHANNELS 3 Zrotation Xrotation Yrotation
        JOINT LeftToeBase
        {
          OFFSET 0 -5.6122 11.7359
          CHANNELS 3 Zrotation Xrotation Yrotation
          End Site
          {
            OFFSET 0 0 7.8731
          }
        }
      }
    }
  }
}
MOTION
Frames:	4
Frame Time:	0.0333333
-0.00558703 -18.6372 -0.22769 0 22.6474 -0 -0.246703 1.25162 -0.180232 -0.489641 2.50399 -0.355197 -0.489641 2.50399 -0.355197 1.32914e-005 6.99709 1.34427e-005 1.08101e-007 9.45005 1.47982e-007 5.51572 14.2662 5.21787 -77.9122 -1.94219 1.38701 -26.0244 6.11983 0.12409 3.90361 5.92876 -28.5037 1.44071e-007 1.19644e-006 7.50036e-008 -1.47525e-007 -1.27144e-006 1.12143e-006 1.44071e-007 1.19644e-006 7.50036e-008 1.44071e-007 1.19644e-006 7.50036e-008 -0.0146134 -9.00521e-005 9.42417e-007 1.44071e-007 1.19643e-006 7.5156e-008 1.44071e-007 1.19644e-006 7.50036e-008 -0.0187508 -0.00117658 6.01999e-005 1.44073e-007 1.19643e-006 7.51979e-008 1.44071e-007 1.19644e-006 7.50036e-008 -0.0122713 -0.00325014 0.000679408 1.4408e-007 1.19643e-006 7.51276e-008 1.44071e-007 1.19644e-006 7.50036e-008 -1.47525e-007 -1.27144e-006 1.12143e-006 1.44071e-007 1.19644e-006 7.50036e-008 2.06467 3.51062 7.01636 73.7032 29.9623 20.4341 0.141492 8.08415 37.2646 -3.27197 -30.3165 -4.45607 -7.95139e-016 -6.36111e-015 -1.59028e-015 8.53087e-008 1.74155e-006 4.55549e-007 0 0 -0 -7.95139e-016 -6.36111e-015 -1.59028e-015 0.0149845 -9.09466e-005 -2.43543e-006 -2.26615e-014 3.18055e-015 -1.59028e-015 -7.95139e-016 -6.36111e-015 -1.59028e-015 0.0190169 -0.00119477 -6.03006e-005 3.97569e-015 0 1.59028e-015 -7.95139e-016 -6.36111e-015 -1.59028e-015 0.0122612 -0.00324345 -0.000674522 -1.59028e-014 0 -4.77083e-015 -7.95139e-016 -6.36111e-015 -1.59028e-015 8.53087e-008 1.74155e-006 4.55549e-007 0 0 -0 0.889374 -21.52 -14.5797 -126.531 82.16 124.823 11.5008 27.7194 -14.1206 -5.75461e-007 -1.96144e-007 -1.12619e-006 -0.784519 -21.8999 14.2357 89.5266 83.0157 -88.3403 -29.0226 55.4033 49.4196 3.58697e-007 -3.51355e-007 1.62136e-006 
-0.0055786 -18.6355 -0.109968 0 22.2969 -0 -0.247599 1.53852 -0.179989 -0.490626 3.07786 -0.353515 -0.490627 3.07785 -0.353515 -1.40877e-006 6.9969 -3.62733e-006 -4.13456e-007 9.90093 -1.65536e-007 5.39001 13.3705 5.1455 -77.9122 -1.9422 1.38701 -25.8457 6.0452 0.124462 3.75872 5.72426 -28.5189 -5.99204e-007 9.12492e-008 -2.45184e-008 -7.45443e-016 5.96354e-016 3.18055e-015 -7.20594e-016 9.93923e-017 3.18055e-015 -5.99204e-007 9.12492e-008 -2.45184e-008 -0.0145877 -8.84549e-005 3.75957e-007 -9.93923e-017 2.98177e-016 -0 -5.99204e-007 9.12492e-008 -2.45184e-008 -0.0187483 -0.00117639 6.02647e-005 6.00794e-007 -9.11538e-008 2.44922e-008 -5.99204e-007 9.12492e-008 -2.45184e-008 -0.0123003 -0.0032557 0.000675482 6.00247e-007 -9.09793e-008 2.44343e-008 -5.99204e-007 9.12492e-008 -2.45184e-008 -7.45443e-016 5.96354e-016 3.18055e-015 -7.20594e-016 9.93923e-017 3.18055e-015 2.55147 3.24574 7.04039 72.6378 29.8421 21.126 0.128076 8.10161 37.2665 -2.58527 -29.7667 -3.67439 1.77197e-008 6.03062e-008 -8.62376e-008 -1.77197e-008 -6.03062e-008 8.62376e-008 -1.98785e-015 0 -1.59028e-015 1.77197e-008 6.03062e-008 -8.62376e-008 0.0150063 -9.15675e-005 1.46714e-007 3.97569e-015 0 1.59028e-015 1.77197e-008 6.03062e-008 -8.62376e-008 0.0190149 -0.00119225 -5.86642e-005 -4.77083e-015 0 -4.77083e-015 1.77197e-008 6.03062e-008 -8.62376e-008 0.0122598 -0.00324622 -0.000676678 5.56597e-015 0 1.59028e-015 1.77197e-008 6.03062e-008 -8.62376e-008 -1.77197e-008 -6.03062e-008 8.62376e-008 -1.98785e-015 0 -1.59028e-015 0.915812 -21.0404 -14.5399 -126.379 82.1782 124.674 11.5001 27.7188 -14.1194 -3.244e-006 -7.47636e-008 -8.48503e-008 -0.805099 -21.4178 14.2023 89.2835 83.0182 -88.1 -29.0211 55.4039 49.4181 1.7017e-007 -1.9725e-006 1.27088e-006 
-0.00557086 -18.6335 0.00773579 0 21.9464 -0 -0.248457 1.82512 -0.179722 -0.491554 3.65099 -0.351788 -0.491554 3.65099 -0.351787 -1.29907e-006 6.99672 -2.74108e-006 -2.88184e-007 10.3518 3.31367e-008 5.26364 12.475 5.07143 -77.9122 -1.94219 1.38701 -25.6666 5.97135 0.124879 3.61383 5.51978 -28.5346 -1.4881e-007 -1.19584e-006 -7.53053e-008 -2.23488e-007 -1.83142e-006 4.84964e-007 -5.47943e-010 -7.53053e-008 1.19584e-006 -1.4881e-007 -1.19584e-006 -7.53053e-008 -0.0146259 -9.03716e-005 1.0703e-006 -5.28034e-010 -7.54579e-008 1.19583e-006 -1.4881e-007 -1.19584e-006 -7.53053e-008 -0.018755 -0.00117666 5.93814e-005 -5.11389e-010 -7.54995e-008 1.19583e-006 -1.4881e-007 -1.19584e-006 -7.53053e-008 -0.0122488 -0.00324489 0.000675916 -4.98638e-010 -7.5429e-008 1.19584e-006 -1.4881e-007 -1.19584e-006 -7.53053e-008 -2.23488e-007 -1.83142e-006 4.84964e-007 -5.47943e-010 -7.53053e-008 1.19584e-006 3.03824 2.98098 7.06669 71.5757 29.7109 21.8142 0.114661 8.11907 37.2684 -1.91115 -29.2091 -2.90478 2.16199e-006 -8.93834e-007 -2.72851e-007 7.35396e-008 2.39447e-007 -3.45613e-007 -2.07006e-006 1.19314e-006 -1.59165e-007 2.16199e-006 -8.93834e-007 -2.72851e-007 0.0149774 -8.89423e-005 -4.3517e-008 7.35385e-008 2.39402e-007 -3.45644e-007 2.16199e-006 -8.93834e-007 -2.72851e-007 0.0189893 -0.00119274 -6.0945e-005 7.35348e-008 2.39389e-007 -3.45654e-007 2.16199e-006 -8.93834e-007 -2.72851e-007 0.0122757 -0.00324508 -0.000672934 7.35278e-008 2.3941e-007 -3.45641e-007 2.16199e-006 -8.93834e-007 -2.72851e-007 7.35396e-008 2.39447e-007 -3.45613e-007 -2.07006e-006 1.19314e-006 -1.59165e-007 0.941813 -20.5607 -14.5005 -126.227 82.1963 124.524 11.4995 27.7181 -14.1183 -3.03263e-006 -4.59979e-007 -2.24138e-006 -0.825323 -20.9357 14.1691 89.0403 83.0206 -87.8597 -29.0197 55.4045 49.4166 1.15295e-014 -3.18055e-015 -0 
-0.00556421 -18.6313 0.125406 0 21.596 -0 -0.249268 2.11111 -0.179429 -0.492415 4.22296 -0.350014 -0.492415 4.22296 -0.350015 -1.82892e-006 6.99677 -3.7312e-006 -6.40985e-007 10.8026 -2.29183e-007 5.13656 11.58 4.99562 -77.9122 -1.9422 1.38702 -25.4874 5.89831 0.125269 3.46891 5.31537 -28.5508 -5.96354e-016 -1.98785e-016 -1.59028e-015 -5.46658e-016 0 -1.59028e-015 -4.96962e-016 0 -1.59028e-015 -5.96354e-016 -1.98785e-016 -1.59028e-015 -0.01461 -8.89593e-005 2.96608e-007 6.95746e-016 -3.97569e-016 1.59028e-015 -5.96354e-016 -1.98785e-016 -1.59028e-015 -0.0187517 -0.00117501 5.78099e-005 -1.19271e-015 -1.98785e-016 4.77083e-015 -5.96354e-016 -1.98785e-016 -1.59028e-015 -0.0122878 -0.00325374 0.000676963 2.03754e-015 0 3.18055e-015 -5.96354e-016 -1.98785e-016 -1.59028e-015 -5.46658e-016 0 -1.59028e-015 -4.96962e-016 0 -1.59028e-015 3.52496 2.71648 7.09523 70.5174 29.5687 22.4982 0.101241 8.13651 37.2702 -1.24952 -28.6439 -2.14715 1.87351e-006 -1.194e-006 -1.14798e-006 7.61845e-008 2.37655e-007 -3.46255e-007 1.14277e-007 3.56482e-007 -5.19383e-007 1.87351e-006 -1.194e-006 -1.14798e-006 0.015007 -9.10867e-005 2.15126e-006 1.87481e-006 -1.19416e-006 -1.14782e-006 1.87351e-006 -1.194e-006 -1.14798e-006 0.0190034 -0.00119179 -6.22257e-005 1.14269e-007 3.56396e-007 -5.19443e-007 1.87351e-006 -1.194e-006 -1.14798e-006 0.0122586 -0.00324356 -0.000673125 1.14259e-007 3.56428e-007 -5.19424e-007 1.87351e-006 -1.194e-006 -1.14798e-006 7.61845e-008 2.37655e-007 -3.46255e-007 1.14277e-007 3.56482e-007 -5.19383e-007 0.967395 -20.0811 -14.4614 -126.074 82.2146 124.373 11.4988 27.7175 -14.1171 -1.90882e-007 -6.50004e-008 -3.75955e-007 -0.845191 -20.4537 14.1363 88.7973 83.0229 -87.6196 -29.0181 55.4051 49.415 -5.43269e-007 -1.27262e-006 -1.97208e-006 
